<svg xmlns="http://www.w3.org/2000/svg" viewBox="0 0 512 512">
  <defs>
    <linearGradient id="bg" x1="0" y1="0" x2="1" y2="1">
      <stop offset="0%" stop-color="#0f172a" />
      <stop offset="100%" stop-color="#1d4ed8" />
    </linearGradient>
    <linearGradient id="lock" x1="0" y1="0" x2="1" y2="1">
      <stop offset="0%" stop-color="#e2e8f0" />
      <stop offset="100%" stop-color="#ffffff" />
    </linearGradient>
  </defs>
  <rect width="512" height="512" rx="104" fill="url(#bg)" />
  <path
    d="M346 228h-22v-34c0-38-30-68-68-68s-68 30-68 68v34h-22c-18 0-32 14-32 32v120c0 18 14 32 32 32h180c18 0 32-14 32-32V260c0-18-14-32-32-32Zm-124-34c0-19 15-34 34-34s34 15 34 34v34h-68v-34Zm42 129v36h-16v-36a22 22 0 1 1 16 0Z"
    fill="url(#lock)"
  />
</svg>

